<svg xmlns="http://www.w3.org/2000/svg" viewBox="0 0 220 60"><path d="M43.7 0 15.77 9.96l4.26 36.93L43.7 60l23.67-13.11 4.26-36.93L43.7 0zm6.49 42.58L43.7 26.92l-6.49 15.66H27.4l11.39-27.5h9.81l11.39 27.5h-9.8zm11.97-18.09h-5.43v-9.41h5.43l2.72 4.7-2.72 4.71zM89.72 35.46v-1.18c-.95 1.07-2.02 1.46-3.15 1.46-2.71 0-4.94-2.04-4.94-5.89 0-3.71 2.18-5.86 4.94-5.86 1.14 0 2.25.39 3.13 1.46v-1.18h4.19v11.19h-4.17zm0-4.17v-2.85c-.39-.49-1.18-.74-1.74-.74-1.14 0-2.09.76-2.09 2.16 0 1.39.95 2.2 2.09 2.2.56-.01 1.34-.29 1.74-.77zM103.79 35.46v-6.19c0-1.16-.63-1.6-1.62-1.6-.95 0-1.44.49-1.78.88v6.91h-4.17v-11.2h4.17v1.27c.65-.74 1.88-1.55 3.85-1.55 2.6 0 3.73 1.58 3.73 3.52v7.95h-4.18zM109.88 38.33l1.76-2.97c.86.86 2.13 1.23 3.34 1.23.97 0 2.6-.37 2.6-2.34v-.6c-.95 1.09-1.99 1.51-3.15 1.51-2.69 0-4.91-1.76-4.91-5.58 0-3.73 2.16-5.59 4.91-5.59 1.16 0 2.25.39 3.15 1.46v-1.18h4.17v9.99c0 4.84-3.99 5.75-6.77 5.75-1.92-.01-3.64-.52-5.1-1.68zm7.7-7.58v-2.36c-.39-.46-1.18-.72-1.72-.72-1.14 0-2.09.53-2.09 1.9 0 1.37.95 1.9 2.09 1.9.53 0 1.32-.25 1.72-.72zM131.62 35.46v-1.25c-.65.72-1.88 1.53-3.85 1.53-2.6 0-3.71-1.55-3.71-3.48v-8h4.17v6.21c0 1.14.6 1.58 1.62 1.58.93 0 1.41-.49 1.76-.88v-6.91h4.17v11.19h-4.16zM138.11 35.46V20h4.17v15.46h-4.17zM151.92 35.46v-1.18c-.95 1.07-2.02 1.46-3.15 1.46-2.71 0-4.94-2.04-4.94-5.89 0-3.71 2.18-5.86 4.94-5.86 1.14 0 2.25.39 3.13 1.46v-1.18h4.19v11.19h-4.17zm0-4.17v-2.85c-.39-.49-1.18-.74-1.74-.74-1.14 0-2.09.76-2.09 2.16 0 1.39.95 2.2 2.09 2.2.56-.01 1.35-.29 1.74-.77zM158.41 35.46v-11.2h4.17v1.23c.7-.81 2.16-1.55 3.43-1.55v3.99c-.21-.07-.56-.12-.95-.12-.88 0-2.02.23-2.48.79v6.86h-4.17zM176.14 35.46v-1.67c-.83 1.14-2.2 1.95-3.78 1.95-2.92 0-4.98-2.22-4.98-5.86 0-3.59 2.06-5.89 4.98-5.89 1.51 0 2.87.74 3.78 1.97V20h1.74v15.46h-1.74zm0-3.06v-5.05c-.6-.97-1.97-1.81-3.34-1.81-2.27 0-3.62 1.85-3.62 4.33s1.34 4.31 3.62 4.31c1.37 0 2.74-.81 3.34-1.78zM189.47 35.46v-1.67c-.83 1.14-2.2 1.95-3.78 1.95-2.92 0-4.98-2.22-4.98-5.86 0-3.59 2.06-5.89 4.98-5.89 1.51 0 2.87.74 3.78 1.97v-1.69h1.74v11.19h-1.74zm0-3.06v-5.05c-.6-.97-1.97-1.81-3.34-1.81-2.27 0-3.62 1.85-3.62 4.33s1.34 4.31 3.62 4.31c1.37 0 2.73-.81 3.34-1.78zM194.33 38.26c.25.12.67.19.95.19.76 0 1.27-.25 1.67-1.18l.74-1.69-4.68-11.31h1.9l3.71 9.18 3.73-9.18h1.88l-5.61 13.46c-.67 1.62-1.81 2.25-3.29 2.27-.37 0-.95-.07-1.25-.16l.25-1.58z" fill="#fff"/></svg>